<svg width="16" height="17" viewBox="0 0 16 17" fill="none" xmlns="http://www.w3.org/2000/svg">
<path fill-rule="evenodd" clip-rule="evenodd" d="M14.6153 7.5446C14.5204 8.20241 14.2954 8.82764 13.9619 9.40258C13.9869 9.54492 13.9997 9.68881 13.9997 9.83331C13.9997 10.3352 13.8543 10.8155 13.5849 11.2519C13.4504 11.4698 13.4158 11.725 13.4025 11.8936C13.3873 12.0869 13.3924 12.2984 13.4062 12.5015C13.4217 12.7294 13.4497 12.9687 13.4818 13.1945C13.2216 13.1186 12.9395 13.0424 12.6704 12.9817C12.4465 12.9312 12.2174 12.8881 12.0099 12.8667C11.8289 12.848 11.5674 12.8335 11.3335 12.9091C10.8221 13.0744 10.2594 13.1666 9.66636 13.1666C8.96109 13.1666 8.31335 13.0415 7.74559 12.824C7.60903 12.8302 7.47147 12.8333 7.33301 12.8333C6.52993 12.8333 5.75701 12.7277 5.03385 12.5325C6.08516 13.7484 7.81828 14.5 9.66636 14.5C10.3883 14.5 11.0812 14.3891 11.7198 14.1854C11.7209 14.1855 11.723 14.1855 11.726 14.1854C11.7424 14.1851 11.7879 14.1842 11.8729 14.1929C12.0067 14.2068 12.1786 14.2376 12.377 14.2823C12.7719 14.3714 13.2157 14.5029 13.5615 14.6126C14.2949 14.8455 15.0056 14.2054 14.8745 13.4612C14.8181 13.1408 14.7595 12.7499 14.7365 12.4112C14.7249 12.2409 14.7236 12.1011 14.7317 11.9985C14.7351 11.956 14.7394 11.9294 14.7421 11.9152C15.1172 11.2939 15.333 10.5865 15.333 9.83331C15.333 8.98428 15.0693 8.20897 14.6153 7.5446Z" fill="#787A80"/>
<path fill-rule="evenodd" clip-rule="evenodd" d="M3.73109 4.29845C2.83245 4.98564 2.33306 5.88773 2.33306 6.83301C2.33306 7.30437 2.45577 7.75834 2.68599 8.18049C2.77367 8.34128 2.79854 8.50714 2.80744 8.61942C2.81714 8.74186 2.8123 8.86769 2.80166 8.98536C2.78034 9.22094 2.72949 9.48786 2.66849 9.75076C2.59715 10.0583 2.50572 10.3863 2.41296 10.6942C2.76512 10.5662 3.15003 10.435 3.51493 10.3286C3.80985 10.2425 4.10767 10.1679 4.37274 10.126C4.60108 10.0899 4.93243 10.0544 5.2177 10.1531C5.85792 10.3746 6.57411 10.4997 7.33306 10.4997C8.76451 10.4997 10.0358 10.0552 10.935 9.36757C11.8337 8.68037 12.3331 7.77828 12.3331 6.83301C12.3331 5.88773 11.8337 4.98564 10.935 4.29845C10.0358 3.61079 8.76451 3.16634 7.33306 3.16634C5.90162 3.16634 4.63034 3.61079 3.73109 4.29845ZM2.92116 3.23931C4.07283 2.35861 5.63489 1.83301 7.33306 1.83301C9.03123 1.83301 10.5933 2.35861 11.745 3.23931C12.8973 4.12047 13.6664 5.38505 13.6664 6.83301C13.6664 8.28097 12.8973 9.54555 11.745 10.4267C10.5933 11.3074 9.03123 11.833 7.33306 11.833C6.43769 11.833 5.58244 11.687 4.80591 11.4214C4.80513 11.4236 4.74215 11.4175 4.58098 11.4429C4.39521 11.4723 4.15809 11.5299 3.88836 11.6086C3.35138 11.7652 2.74835 11.9868 2.28902 12.1656C1.49327 12.4753 0.682633 11.711 0.95074 10.897C1.09284 10.4655 1.26043 9.92024 1.36966 9.44943C1.42468 9.21227 1.46039 9.01287 1.47375 8.8652C1.47839 8.81394 1.47958 8.77658 1.47932 8.75132C1.17246 8.16495 0.99973 7.5165 0.99973 6.83301C0.99973 5.38505 1.76887 4.12047 2.92116 3.23931Z" fill="#787A80"/>
</svg>
